<?xml version="1.0" encoding="utf-8"?>
<!-- Generator: Adobe Illustrator 17.0.0, SVG Export Plug-In . SVG Version: 6.00 Build 0)  -->
<!DOCTYPE svg PUBLIC "-//W3C//DTD SVG 1.1//EN" "http://www.w3.org/Graphics/SVG/1.1/DTD/svg11.dtd">
<svg version="1.1" id="Calque_1" xmlns="http://www.w3.org/2000/svg" xmlns:xlink="http://www.w3.org/1999/xlink" x="0px" y="0px"
	 width="50px" height="50px" viewBox="0 0 50 50" enable-background="new 0 0 50 50" xml:space="preserve">
<g>
	<path fill="#FFFFFF" d="M27.433,18.631c0-0.431,0.228-1.007,0.919-1.007h2.401V13.29h-4.482c-1.547,0-3.829,1.924-3.829,3.968
		v4.373h-2.592v4.311l2.609,0.017v10.256h4.939V26.008h3.373l0.815-4.255h-4.152V18.631z"/>
	<g>
		<g>
			<path fill="#FFFFFF" d="M25.718,3.104c-11.141,0-20.174,9.121-20.174,20.377c0,11.253,9.033,20.377,20.174,20.377
				c11.141,0,20.174-9.124,20.174-20.377C45.892,12.226,36.859,3.104,25.718,3.104z M25.718,42.585
				c-10.445,0-18.913-8.554-18.913-19.104c0-10.552,8.468-19.104,18.913-19.104c10.445,0,18.913,8.552,18.913,19.104
				C44.631,34.031,36.163,42.585,25.718,42.585z"/>
		</g>
	</g>
</g>
</svg>
