<?xml version="1.0" encoding="utf-8"?>
<!-- Generator: Adobe Illustrator 17.0.0, SVG Export Plug-In . SVG Version: 6.00 Build 0)  -->
<!DOCTYPE svg PUBLIC "-//W3C//DTD SVG 1.1//EN" "http://www.w3.org/Graphics/SVG/1.1/DTD/svg11.dtd">
<svg version="1.1" id="Calque_1" xmlns="http://www.w3.org/2000/svg" xmlns:xlink="http://www.w3.org/1999/xlink" x="0px" y="0px"
	 width="50px" height="50px" viewBox="0 0 50 50" enable-background="new 0 0 50 50" xml:space="preserve">
<g>
	<path fill="#FFFFFF" d="M33.281,13.201h-15.22c-1.4,0-2.537,1.136-2.537,2.537v15.22c0,1.399,1.137,2.537,2.537,2.537h15.22
		c1.402,0,2.537-1.138,2.537-2.537v-15.22C35.818,14.338,34.684,13.201,33.281,13.201z M25.671,20.812
		c2.339,0,2.537,2.537,2.537,2.537s0.077,2.537-2.537,2.537c-2.609,0-2.537-2.537-2.537-2.537S23.335,20.812,25.671,20.812z
		 M33.281,29.69c0,0.701-0.565,1.268-1.268,1.268H19.329c-0.701,0-1.268-0.567-1.268-1.268v-6.342c0-0.701,0.567-1.268,1.268-1.268
		h1.449c-0.107,0.408-0.181,0.827-0.181,1.268c0,2.802,2.272,5.073,5.073,5.073s5.073-2.272,5.073-5.073
		c0-0.441-0.074-0.861-0.178-1.268h1.447c0.704,0,1.268,0.567,1.268,1.268V29.69z M33.281,18.275c0,0.7-0.565,1.268-1.268,1.268
		h-1.268c-0.699,0-1.268-0.568-1.268-1.268v-1.268c0-0.7,0.57-1.268,1.268-1.268h1.268c0.704,0,1.268,0.568,1.268,1.268V18.275z"/>
	<g>
		<g>
			<path fill="#FFFFFF" d="M25.671,3.055c-11.207,0-20.294,9.084-20.294,20.294c0,11.207,9.087,20.294,20.294,20.294
				c11.207,0,20.294-9.087,20.294-20.294C45.965,12.139,36.878,3.055,25.671,3.055z M25.671,42.374
				c-10.506,0-19.025-8.519-19.025-19.025c0-10.509,8.519-19.025,19.025-19.025c10.509,0,19.025,8.517,19.025,19.025
				C44.697,33.854,36.18,42.374,25.671,42.374z"/>
		</g>
	</g>
</g>
</svg>
