<?xml version="1.0" encoding="utf-8"?>
<!-- Generator: Adobe Illustrator 18.1.1, SVG Export Plug-In . SVG Version: 6.00 Build 0)  -->
<svg version="1.1" id="Calque_1" xmlns="http://www.w3.org/2000/svg" xmlns:xlink="http://www.w3.org/1999/xlink" x="0px" y="0px"
	 viewBox="0 0 566.9 566.9" enable-background="new 0 0 566.9 566.9" xml:space="preserve">
<g>
	
		<linearGradient id="SVGID_1_" gradientUnits="userSpaceOnUse" x1="97.3275" y1="434.9508" x2="181.0442" y2="579.9525" gradientTransform="matrix(1.9617 0 0 -1.9617 0 1189.631)">
		<stop  offset="0" style="stop-color:#F38230"/>
		<stop  offset="1" style="stop-color:#F8A433"/>
	</linearGradient>
	<path fill="url(#SVGID_1_)" d="M506.3,202.3c-34.1,0-58.9,0-93-0.2c-7.5,0-11.4,2.9-14.7,10.2c-17.5,39.6-35.7,78.9-53,118.5
		c-7.8,17.7-19.4,28.8-38.1,30.8c-0.8,0-16.9,0-32.8,0c-15.7,0-32,0-32.6,0c-18.6-2.2-30.4-13.1-38.1-30.8
		c-17.3-39.6-35.5-78.9-53-118.5c-3.1-7.3-7.1-10.2-14.7-10.2c-34.1,0.4-58.9,0.2-93,0.2c0-1.2,20-52,31.6-77.1
		c3.1-7.1,7.3-10,14.9-10c33.7,0.4,67.5,0.4,101,0c8.2-0.2,12.4,3.3,15.5,11.2c20.8,52,63,154.4,68.1,154.4
		c5.3,0,47.3-102.4,68.3-154.4c3.1-7.8,7.3-11.4,15.5-11.2c33.7,0.4,67.5,0.4,101,0c7.7-0.2,11.6,2.9,14.9,10
		C486.3,150.5,506.3,201.1,506.3,202.3z"/>
</g>
<g enable-background="new    ">
	<path fill="#427BAB" d="M67.2,432.3l12.8-37h6.5l-16.6,44.8h-5.2L48,395.4h6.4L67.2,432.3z"/>
	<path fill="#427BAB" d="M132.4,419.2c0,3.4-0.4,6.4-1.3,9c-0.9,2.7-2.1,4.9-3.6,6.8c-1.6,1.9-3.4,3.3-5.7,4.3
		c-2.2,1-4.7,1.5-7.4,1.5c-2.6,0-5.1-0.5-7.3-1.5s-4.1-2.4-5.7-4.3c-1.6-1.9-2.8-4.1-3.7-6.8c-0.9-2.7-1.3-5.7-1.3-9v-2.8
		c0-3.3,0.4-6.4,1.3-9c0.9-2.7,2.1-5,3.7-6.8c1.6-1.9,3.5-3.3,5.7-4.3c2.2-1,4.6-1.5,7.3-1.5c2.7,0,5.2,0.5,7.4,1.5
		c2.2,1,4.1,2.4,5.7,4.3c1.6,1.9,2.8,4.1,3.6,6.8c0.9,2.7,1.3,5.7,1.3,9V419.2z M126.6,416.3c0-2.7-0.3-5-0.8-7.1
		c-0.5-2.1-1.3-3.8-2.4-5.2c-1-1.4-2.3-2.5-3.8-3.2c-1.5-0.7-3.2-1.1-5.1-1.1c-1.8,0-3.5,0.4-5,1.1c-1.5,0.7-2.8,1.8-3.8,3.2
		c-1.1,1.4-1.9,3.1-2.4,5.2c-0.6,2.1-0.9,4.4-0.9,7.1v2.9c0,2.7,0.3,5.1,0.9,7.1c0.6,2.1,1.4,3.8,2.5,5.2c1.1,1.4,2.4,2.5,3.8,3.2
		c1.5,0.7,3.2,1.1,5,1.1c1.9,0,3.6-0.4,5.1-1.1c1.5-0.7,2.8-1.8,3.8-3.2c1-1.4,1.8-3.1,2.4-5.2c0.5-2.1,0.8-4.4,0.8-7.1V416.3z"/>
	<path fill="#427BAB" d="M153.1,435.3h21.2v4.8h-27.2v-44.8h5.9V435.3z"/>
	<path fill="#427BAB" d="M219.4,419.2c0,3.4-0.4,6.4-1.3,9c-0.9,2.7-2.1,4.9-3.6,6.8c-1.6,1.9-3.4,3.3-5.7,4.3
		c-2.2,1-4.7,1.5-7.4,1.5c-2.6,0-5.1-0.5-7.3-1.5s-4.1-2.4-5.7-4.3c-1.6-1.9-2.8-4.1-3.7-6.8c-0.9-2.7-1.3-5.7-1.3-9v-2.8
		c0-3.3,0.4-6.4,1.3-9c0.9-2.7,2.1-5,3.7-6.8c1.6-1.9,3.5-3.3,5.7-4.3c2.2-1,4.6-1.5,7.3-1.5c2.7,0,5.2,0.5,7.4,1.5
		c2.2,1,4.1,2.4,5.7,4.3c1.6,1.9,2.8,4.1,3.6,6.8c0.9,2.7,1.3,5.7,1.3,9V419.2z M213.6,416.3c0-2.7-0.3-5-0.8-7.1
		c-0.5-2.1-1.3-3.8-2.4-5.2c-1-1.4-2.3-2.5-3.8-3.2c-1.5-0.7-3.2-1.1-5.1-1.1c-1.8,0-3.5,0.4-5,1.1c-1.5,0.7-2.8,1.8-3.8,3.2
		c-1.1,1.4-1.9,3.1-2.4,5.2c-0.6,2.1-0.9,4.4-0.9,7.1v2.9c0,2.7,0.3,5.1,0.9,7.1c0.6,2.1,1.4,3.8,2.5,5.2c1.1,1.4,2.4,2.5,3.8,3.2
		c1.5,0.7,3.2,1.1,5,1.1c1.9,0,3.6-0.4,5.1-1.1c1.5-0.7,2.8-1.8,3.8-3.2c1-1.4,1.8-3.1,2.4-5.2c0.5-2.1,0.8-4.4,0.8-7.1V416.3z"/>
	<path fill="#427BAB" d="M268.6,440.2h-5.9l-22.6-34.5v34.5h-5.9v-44.8h5.9l22.6,34.7v-34.7h5.9V440.2z"/>
	<path fill="#427BAB" d="M315.1,400.2h-14.4v40h-5.9v-40h-14.4v-4.9h34.7V400.2z"/>
	<path fill="#427BAB" d="M352.9,419.5h-19.4v15.9H356v4.8h-28.5v-44.8h28.2v4.9h-22.3v14.4h19.4V419.5z"/>
	<path fill="#427BAB" d="M394.6,419.5h-19.4v15.9h22.6v4.8h-28.5v-44.8h28.2v4.9h-22.3v14.4h19.4V419.5z"/>
	<path fill="#427BAB" d="M427.4,422h-10.5v18.1h-5.9v-44.8h14.8c5,0,8.9,1.1,11.7,3.4s4.1,5.6,4.1,10c0,2.8-0.8,5.2-2.3,7.3
		s-3.6,3.6-6.3,4.6l10.5,19v0.4h-6.3L427.4,422z M416.9,417.2h9.1c1.6,0,3-0.2,4.2-0.7c1.2-0.4,2.2-1,3-1.8c0.8-0.7,1.4-1.6,1.8-2.6
		c0.4-1,0.6-2.1,0.6-3.3c0-1.3-0.2-2.5-0.6-3.5c-0.4-1.1-1-2-1.8-2.7c-0.8-0.8-1.8-1.3-3-1.8c-1.2-0.4-2.7-0.6-4.4-0.6h-8.9V417.2z"
		/>
	<path fill="#427BAB" d="M479.5,428.9c0-1-0.2-2-0.5-2.8c-0.3-0.8-0.9-1.5-1.7-2.2c-0.8-0.7-1.9-1.3-3.3-1.9
		c-1.4-0.6-3.1-1.2-5.2-1.8c-2.2-0.6-4.2-1.4-6-2.2c-1.8-0.8-3.3-1.7-4.6-2.8c-1.3-1.1-2.2-2.3-2.9-3.6c-0.7-1.4-1-2.9-1-4.6
		c0-1.7,0.4-3.4,1.1-4.8s1.8-2.8,3.1-3.9c1.3-1.1,2.9-2,4.8-2.6c1.9-0.6,4-0.9,6.2-0.9c2.5,0,4.8,0.4,6.7,1.1c2,0.8,3.6,1.8,5,3
		c1.3,1.3,2.4,2.7,3.1,4.3c0.7,1.6,1,3.3,1,5.1h-5.9c0-1.3-0.2-2.4-0.6-3.5s-1-2-1.8-2.8c-0.8-0.8-1.8-1.4-3.1-1.8
		c-1.2-0.4-2.7-0.6-4.4-0.6c-1.6,0-3,0.2-4.1,0.6s-2.1,0.9-2.9,1.5c-0.8,0.6-1.3,1.4-1.7,2.3c-0.4,0.9-0.6,1.8-0.6,2.9
		c0,0.9,0.2,1.8,0.6,2.6c0.4,0.8,1,1.5,1.9,2.2c0.8,0.7,1.9,1.3,3.2,1.8c1.3,0.6,2.9,1.1,4.8,1.6c2.5,0.7,4.7,1.5,6.6,2.4
		c1.8,0.9,3.4,1.9,4.6,3c1.2,1.1,2.1,2.4,2.7,3.7s0.9,2.9,0.9,4.7c0,1.8-0.4,3.5-1.1,5c-0.7,1.5-1.8,2.7-3.2,3.8
		c-1.4,1-3,1.9-4.9,2.4c-1.9,0.6-4.1,0.8-6.4,0.8c-1.4,0-2.8-0.1-4.1-0.4c-1.4-0.3-2.7-0.6-4-1.2c-1.3-0.5-2.4-1.1-3.5-1.9
		c-1.1-0.8-2-1.6-2.8-2.6c-0.8-1-1.4-2.1-1.9-3.4c-0.5-1.3-0.7-2.6-0.7-4.1h5.9c0,1.5,0.3,2.9,0.9,4c0.6,1.1,1.4,2,2.4,2.7
		c1,0.7,2.2,1.2,3.5,1.6c1.3,0.3,2.7,0.5,4.2,0.5c3.1,0,5.5-0.6,7.2-1.9C478.7,432.8,479.5,431,479.5,428.9z"/>
</g>
</svg>
