<?xml version="1.0" encoding="utf-8"?>
<!-- Generator: Adobe Illustrator 18.1.1, SVG Export Plug-In . SVG Version: 6.00 Build 0)  -->
<svg version="1.1" id="Calque_1" xmlns="http://www.w3.org/2000/svg" xmlns:xlink="http://www.w3.org/1999/xlink" x="0px" y="0px"
	 viewBox="0 37 1639.7 398.8" enable-background="new 0 37 1639.7 398.8" xml:space="preserve">
<g>
	
		<linearGradient id="SVGID_1_" gradientUnits="userSpaceOnUse" x1="97.2563" y1="131.0144" x2="180.9709" y2="-13.9837" gradientTransform="matrix(1.9618 0 0 1.9618 0 77.4885)">
		<stop  offset="0" style="stop-color:#F38230"/>
		<stop  offset="1" style="stop-color:#F8A433"/>
	</linearGradient>
	<path fill="url(#SVGID_1_)" d="M506.3,200.4c-34.1,0-58.9,0-93-0.2c-7.5,0-11.4,2.9-14.7,10.2c-17.5,39.6-35.7,78.9-53,118.5
		c-7.8,17.7-19.4,28.8-38.1,30.8c-0.8,0-16.9,0-32.8,0c-15.7,0-32,0-32.6,0c-18.6-2.2-30.4-13.1-38.1-30.8
		c-17.3-39.6-35.5-78.9-53-118.5c-3.1-7.3-7.1-10.2-14.7-10.2c-34.1,0.4-58.9,0.2-93,0.2c0-1.2,20-52,31.6-77.1
		c3.1-7.1,7.3-10,14.9-10c33.7,0.4,67.5,0.4,101,0c8.2-0.2,12.4,3.3,15.5,11.2c20.8,52,63,154.4,68.1,154.4
		c5.3,0,47.3-102.4,68.3-154.4c3.1-7.8,7.3-11.4,15.5-11.2c33.7,0.4,67.5,0.4,101,0c7.7-0.2,11.6,2.9,14.9,10
		C486.3,148.6,506.3,199.2,506.3,200.4z"/>
</g>
<g enable-background="new    ">
	<path fill="#427BAB" d="M663.3,258.9l27.2-78.5h13.7l-35.3,95.1h-11.1l-35.2-95.1h13.7L663.3,258.9z"/>
	<path fill="#427BAB" d="M801.7,231.1c0,7.1-0.9,13.5-2.7,19.2c-1.8,5.6-4.4,10.4-7.7,14.4c-3.3,4-7.3,7-12,9.1
		c-4.7,2.1-10,3.1-15.7,3.1c-5.6,0-10.8-1-15.5-3.1c-4.7-2.1-8.8-5.1-12.2-9.1c-3.4-4-6-8.8-7.9-14.4s-2.8-12-2.8-19.2v-6
		c0-7.1,0.9-13.5,2.8-19.2c1.9-5.7,4.5-10.5,7.8-14.5c3.4-4,7.4-7,12.1-9.1c4.7-2.1,9.9-3.2,15.5-3.2c5.8,0,11,1.1,15.8,3.2
		c4.7,2.1,8.8,5.2,12.1,9.1c3.3,4,5.9,8.8,7.7,14.5c1.8,5.7,2.7,12.1,2.7,19.2V231.1z M789.2,224.9c0-5.7-0.6-10.7-1.7-15
		c-1.2-4.4-2.8-8-5.1-11c-2.2-3-4.9-5.2-8.1-6.7c-3.2-1.5-6.8-2.3-10.9-2.3c-3.9,0-7.4,0.8-10.6,2.3c-3.2,1.5-5.9,3.8-8.1,6.7
		c-2.2,3-4,6.6-5.2,11c-1.2,4.4-1.8,9.4-1.8,15v6.1c0,5.7,0.6,10.7,1.9,15.1c1.2,4.4,3,8,5.3,11c2.3,3,5,5.2,8.2,6.8
		c3.2,1.5,6.7,2.3,10.6,2.3c4.1,0,7.7-0.8,10.9-2.3c3.2-1.5,5.9-3.8,8.1-6.8c2.2-3,3.9-6.7,5-11c1.1-4.4,1.7-9.4,1.7-15.1V224.9z"/>
	<path fill="#427BAB" d="M845.5,265.3h45.1v10.3h-57.7v-95.1h12.6V265.3z"/>
	<path fill="#427BAB" d="M980.8,180.4v64.4c0,5.4-0.9,10-2.8,14c-1.9,4-4.4,7.3-7.5,10c-3.2,2.7-6.8,4.6-11,6c-4.2,1.3-8.6,2-13.2,2
		c-4.8,0-9.3-0.7-13.5-2c-4.2-1.3-7.8-3.3-10.9-6c-3.1-2.7-5.5-6-7.3-10c-1.8-4-2.6-8.7-2.6-14v-64.4h12.4v64.4
		c0,3.7,0.5,6.9,1.6,9.6c1.1,2.7,2.6,5,4.5,6.8c1.9,1.8,4.2,3.1,6.9,4c2.7,0.9,5.7,1.3,8.9,1.3c3.3,0,6.3-0.4,9-1.3
		c2.7-0.9,5-2.2,6.9-4c1.9-1.8,3.4-4.1,4.4-6.8s1.6-5.9,1.6-9.6v-64.4H980.8z"/>
	<path fill="#427BAB" d="M1086.1,275.5h-12.6l-47.9-73.3v73.3H1013v-95.1h12.6l48,73.6v-73.6h12.5V275.5z"/>
	<path fill="#427BAB" d="M1184.7,190.8h-30.6v84.8h-12.5v-84.8h-30.5v-10.3h73.6V190.8z"/>
	<path fill="#427BAB" d="M1265,231.6h-41.2v33.7h47.9v10.3h-60.4v-95.1h59.8v10.3h-47.2v30.6h41.2V231.6z"/>
	<path fill="#427BAB" d="M1353.4,231.6h-41.2v33.7h47.9v10.3h-60.4v-95.1h59.8v10.3h-47.2v30.6h41.2V231.6z"/>
	<path fill="#427BAB" d="M1423,237.1h-22.3v38.5h-12.6v-95.1h31.5c10.7,0,19,2.4,24.7,7.3c5.8,4.9,8.7,12,8.7,21.3
		c0,5.9-1.6,11.1-4.8,15.5c-3.2,4.4-7.7,7.7-13.4,9.9l22.3,40.4v0.8h-13.5L1423,237.1z M1400.7,226.8h19.3c3.4,0,6.4-0.5,8.9-1.4
		c2.5-0.9,4.7-2.2,6.4-3.8s3-3.5,3.8-5.6c0.8-2.2,1.3-4.5,1.3-7c0-2.7-0.4-5.2-1.2-7.5c-0.8-2.2-2.1-4.2-3.8-5.8
		c-1.7-1.6-3.9-2.9-6.5-3.7c-2.6-0.9-5.7-1.3-9.3-1.3h-18.9V226.8z"/>
	<path fill="#427BAB" d="M1533.7,251.5c0-2.2-0.3-4.2-1-5.9c-0.7-1.7-1.9-3.3-3.6-4.7c-1.7-1.4-4-2.7-7-4c-2.9-1.2-6.6-2.5-11.1-3.8
		c-4.7-1.3-9-2.9-12.8-4.6c-3.8-1.7-7.1-3.7-9.7-5.9c-2.7-2.2-4.7-4.8-6.2-7.7c-1.4-2.9-2.2-6.2-2.2-9.9c0-3.7,0.8-7.1,2.3-10.3
		c1.5-3.2,3.7-5.9,6.6-8.2c2.8-2.3,6.2-4.1,10.2-5.5s8.4-2,13.3-2c5.4,0,10.1,0.8,14.3,2.4c4.2,1.6,7.7,3.7,10.5,6.4
		c2.9,2.7,5,5.7,6.5,9.2c1.5,3.5,2.2,7.1,2.2,10.8h-12.6c0-2.7-0.4-5.1-1.3-7.4c-0.8-2.3-2.1-4.2-3.9-5.9c-1.7-1.7-3.9-2.9-6.5-3.9
		c-2.6-0.9-5.7-1.4-9.3-1.4c-3.4,0-6.3,0.4-8.8,1.2s-4.5,1.9-6.1,3.2c-1.6,1.4-2.8,3-3.6,4.9c-0.8,1.9-1.2,3.9-1.2,6.1
		c0,2,0.4,3.8,1.3,5.5c0.8,1.7,2.2,3.2,4,4.6c1.8,1.4,4.1,2.7,6.9,3.9c2.8,1.2,6.2,2.3,10.1,3.4c5.4,1.5,10.1,3.2,14,5.1
		c3.9,1.9,7.2,4,9.7,6.3s4.4,5,5.7,7.9c1.2,2.9,1.9,6.2,1.9,9.9c0,3.9-0.8,7.4-2.4,10.5c-1.6,3.1-3.8,5.8-6.7,8
		c-2.9,2.2-6.4,3.9-10.5,5.1c-4.1,1.2-8.6,1.8-13.6,1.8c-2.9,0-5.8-0.3-8.8-0.8c-2.9-0.5-5.7-1.4-8.4-2.5c-2.7-1.1-5.2-2.4-7.4-4
		c-2.3-1.6-4.3-3.5-6-5.6c-1.7-2.1-3-4.5-4-7.2c-1-2.7-1.4-5.6-1.4-8.8h12.6c0,3.3,0.6,6.1,1.9,8.4s3,4.3,5.2,5.8
		c2.2,1.5,4.6,2.6,7.4,3.4c2.8,0.7,5.8,1.1,8.9,1.1c6.6,0,11.7-1.3,15.2-4C1531.9,259.9,1533.7,256.2,1533.7,251.5z"/>
</g>
</svg>
