<?xml version="1.0" encoding="utf-8"?>
<!-- Generator: Adobe Illustrator 18.1.1, SVG Export Plug-In . SVG Version: 6.00 Build 0)  -->
<svg version="1.1" id="Calque_1" xmlns="http://www.w3.org/2000/svg" xmlns:xlink="http://www.w3.org/1999/xlink" x="0px" y="0px"
	 viewBox="0 37 1639.7 398.8" enable-background="new 0 37 1639.7 398.8" xml:space="preserve">
<g>
	
		<linearGradient id="SVGID_1_" gradientUnits="userSpaceOnUse" x1="97.2563" y1="131.0144" x2="180.9709" y2="-13.9837" gradientTransform="matrix(1.9618 0 0 1.9618 0 77.4885)">
		<stop  offset="0" style="stop-color:#F38230"/>
		<stop  offset="1" style="stop-color:#F8A433"/>
	</linearGradient>
	<path fill="url(#SVGID_1_)" d="M506.3,200.4c-34.1,0-58.9,0-93-0.2c-7.5,0-11.4,2.9-14.7,10.2c-17.5,39.6-35.7,78.9-53,118.5
		c-7.8,17.7-19.4,28.8-38.1,30.8c-0.8,0-16.9,0-32.8,0c-15.7,0-32,0-32.6,0c-18.6-2.2-30.4-13.1-38.1-30.8
		c-17.3-39.6-35.5-78.9-53-118.5c-3.1-7.3-7.1-10.2-14.7-10.2c-34.1,0.4-58.9,0.2-93,0.2c0-1.2,20-52,31.6-77.1
		c3.1-7.1,7.3-10,14.9-10c33.7,0.4,67.5,0.4,101,0c8.2-0.2,12.4,3.3,15.5,11.2c20.8,52,63,154.4,68.1,154.4
		c5.3,0,47.3-102.4,68.3-154.4c3.1-7.8,7.3-11.4,15.5-11.2c33.7,0.4,67.5,0.4,101,0c7.7-0.2,11.6,2.9,14.9,10
		C486.3,148.6,506.3,199.2,506.3,200.4z"/>
</g>
<g enable-background="new    ">
	<path fill="#427BAB" d="M661.2,266.9l27-77.9h13.7l-35,94.4h-11l-35.2-94.1h13.5L661.2,266.9z"/>
	<path fill="#427BAB" d="M798.5,239.3c0,7.2-0.8,13.5-2.7,19c-1.9,5.7-4.4,10.3-7.6,14.3c-3.4,4-7.2,7-12,9.1
		c-4.6,2.1-9.9,3.2-15.6,3.2c-5.5,0-10.7-1.1-15.4-3.2c-4.6-2.1-8.6-5.1-12-9.1s-5.9-8.6-7.8-14.3c-1.9-5.7-2.7-12-2.7-19v-5.9
		c0-7,0.8-13.5,2.7-19c1.9-5.7,4.4-10.5,7.8-14.3c3.4-4,7.4-7,12-9.1c4.6-2.1,9.7-3.2,15.4-3.2c5.7,0,11,1.1,15.6,3.2
		c4.6,2.1,8.6,5.1,12,9.1c3.4,4,5.9,8.6,7.6,14.3c1.9,5.7,2.7,12,2.7,19V239.3z M786.3,233.2c0-5.7-0.6-10.5-1.7-15
		c-1.1-4.4-2.7-8-5.1-11c-2.1-2.9-4.8-5.3-8-6.7c-3.2-1.5-6.7-2.3-10.7-2.3c-3.8,0-7.4,0.8-10.5,2.3c-3.2,1.5-5.9,3.8-8,6.7
		c-2.3,2.9-4,6.5-5.1,11c-1.3,4.4-1.9,9.3-1.9,15v6.1c0,5.7,0.6,10.7,1.9,15c1.3,4.4,2.9,8,5.3,11c2.3,2.9,5.1,5.3,8,6.7
		c3.2,1.5,6.7,2.3,10.5,2.3c4,0,7.6-0.8,10.7-2.3c3.2-1.5,5.9-3.8,8-6.7c2.1-2.9,3.8-6.5,5.1-11c1.1-4.4,1.7-9.3,1.7-15v-6.1H786.3z
		"/>
	<path fill="#427BAB" d="M842.1,273.2h44.7v10.1h-57.3V189h12.4v84.2H842.1z"/>
	<path fill="#427BAB" d="M981.8,239.3c0,7.2-0.8,13.5-2.7,19c-1.9,5.7-4.4,10.3-7.6,14.3c-3.4,4-7.2,7-12,9.1
		c-4.6,2.1-9.9,3.2-15.6,3.2c-5.5,0-10.7-1.1-15.4-3.2c-4.6-2.1-8.6-5.1-12-9.1c-3.4-4-5.9-8.6-7.8-14.3c-1.9-5.7-2.7-12-2.7-19
		v-5.9c0-7,0.8-13.5,2.7-19c1.9-5.7,4.4-10.5,7.8-14.3c3.4-4,7.4-7,12-9.1c4.6-2.1,9.7-3.2,15.4-3.2c5.7,0,11,1.1,15.6,3.2
		c4.6,2.1,8.6,5.1,12,9.1c3.4,4,5.9,8.6,7.6,14.3c1.9,5.7,2.7,12,2.7,19V239.3z M969.6,233.2c0-5.7-0.6-10.5-1.7-15
		c-1.1-4.4-2.7-8-5.1-11c-2.1-2.9-4.8-5.3-8-6.7c-3.2-1.5-6.7-2.3-10.7-2.3c-3.8,0-7.4,0.8-10.5,2.3c-3.2,1.5-5.9,3.8-8,6.7
		c-2.3,2.9-4,6.5-5.1,11c-1.3,4.4-1.9,9.3-1.9,15v6.1c0,5.7,0.6,10.7,1.9,15c1.3,4.4,2.9,8,5.3,11c2.3,2.9,5.1,5.3,8,6.7
		c3.2,1.5,6.7,2.3,10.5,2.3c4,0,7.6-0.8,10.7-2.3c3.2-1.5,5.9-3.8,8-6.7c2.1-2.9,3.8-6.5,5.1-11c1.1-4.4,1.7-9.3,1.7-15v-6.1H969.6z
		"/>
	<path fill="#427BAB" d="M1085.4,283.5H1073l-47.6-72.7v72.7H1013v-94.4h12.4l47.6,73.1v-73.1h12.4V283.5z"/>
	<path fill="#427BAB" d="M1183.3,199.3H1153v84.2h-12.4v-84.2h-30.3V189h73.1V199.3L1183.3,199.3z"/>
	<path fill="#427BAB" d="M1263,239.9h-40.9v33.5h47.4v10.1h-60v-94.4h59.4v10.3h-47v30.3h40.9v10.1H1263z"/>
	<path fill="#427BAB" d="M1350.8,239.9h-40.9v33.5h47.6v10.1h-60v-94.4h59.4v10.3h-47v30.3h40.9V239.9L1350.8,239.9z"/>
	<path fill="#427BAB" d="M1419.9,245.2h-22.1v38.1h-12.4V189h31.2c10.5,0,18.7,2.3,24.6,7.2s8.6,11.8,8.6,21.1
		c0,5.9-1.7,11-4.8,15.4c-3.2,4.4-7.6,7.6-13.3,9.7l22.1,40v0.8h-13.3L1419.9,245.2z M1397.8,235.1h19.2c3.4,0,6.3-0.4,8.8-1.5
		c2.5-0.8,4.6-2.1,6.3-3.8c1.7-1.5,2.9-3.4,3.8-5.5c0.8-2.1,1.3-4.4,1.3-7c0-2.7-0.4-5.3-1.3-7.4c-0.8-2.3-2.1-4.2-3.8-5.7
		c-1.7-1.7-3.8-2.7-6.3-3.8c-2.5-0.8-5.7-1.3-9.3-1.3h-18.7L1397.8,235.1L1397.8,235.1z"/>
	<path fill="#427BAB" d="M1529.6,259.7c0-2.1-0.4-4.2-1.1-5.9s-1.9-3.2-3.6-4.6c-1.7-1.5-4-2.7-7-4c-2.9-1.3-6.5-2.5-11-3.8
		c-4.6-1.3-8.8-2.9-12.6-4.6c-3.8-1.7-7-3.6-9.7-5.9c-2.7-2.3-4.6-4.8-6.1-7.6c-1.5-2.9-2.1-6.1-2.1-9.7c0-3.6,0.8-7.2,2.3-10.1
		s3.8-5.9,6.5-8.2c2.7-2.3,6.1-4.2,10.1-5.5c4-1.3,8.4-1.9,13.1-1.9c5.3,0,10.1,0.8,14.1,2.3c4.2,1.7,7.6,3.8,10.5,6.3
		c2.7,2.7,5.1,5.7,6.5,9.1c1.5,3.4,2.1,7,2.1,10.7h-12.4c0-2.7-0.4-5.1-1.3-7.4c-0.8-2.3-2.1-4.2-3.8-5.9c-1.7-1.7-3.8-2.9-6.5-3.8
		c-2.5-0.8-5.7-1.3-9.3-1.3c-3.4,0-6.3,0.4-8.6,1.3c-2.3,0.8-4.4,1.9-6.1,3.2c-1.7,1.3-2.7,2.9-3.6,4.8c-0.8,1.9-1.3,3.8-1.3,6.1
		c0,1.9,0.4,3.8,1.3,5.5c0.8,1.7,2.1,3.2,4,4.6c1.7,1.5,4,2.7,6.7,3.8c2.7,1.3,6.1,2.3,10.1,3.4c5.3,1.5,9.9,3.2,13.9,5.1
		c3.8,1.9,7.2,4,9.7,6.3c2.5,2.3,4.4,5.1,5.7,7.8c1.3,2.7,1.9,6.1,1.9,9.9c0,3.8-0.8,7.4-2.3,10.5s-3.8,5.7-6.7,8
		c-2.9,2.1-6.3,4-10.3,5.1c-4,1.3-8.6,1.7-13.5,1.7c-2.9,0-5.9-0.2-8.6-0.8c-2.9-0.6-5.7-1.3-8.4-2.5c-2.7-1.1-5.1-2.3-7.4-4
		c-2.3-1.7-4.2-3.4-5.9-5.5c-1.7-2.1-2.9-4.4-4-7.2c-1.1-2.7-1.5-5.5-1.5-8.6h12.4c0,3.2,0.6,6.1,1.9,8.4c1.3,2.3,2.9,4.2,5.1,5.7
		c2.1,1.5,4.6,2.5,7.4,3.4c2.7,0.6,5.7,1.1,8.8,1.1c6.5,0,11.6-1.3,15.2-4C1527.9,267.9,1529.6,264.2,1529.6,259.7z"/>
</g>
</svg>
