<?xml version="1.0" encoding="utf-8"?>
<!-- Generator: Adobe Illustrator 18.1.1, SVG Export Plug-In . SVG Version: 6.00 Build 0)  -->
<svg version="1.1" id="Calque_1" xmlns="http://www.w3.org/2000/svg" xmlns:xlink="http://www.w3.org/1999/xlink" x="0px" y="0px"
	 viewBox="0 37 1639.7 398.8" enable-background="new 0 37 1639.7 398.8" xml:space="preserve">
<g enable-background="new    ">
	<path fill="#427BAB" d="M622.3,269.6l29.1-84h14.7l-37.8,101.9h-11.9l-37.7-101.9h14.6L622.3,269.6z"/>
	<path fill="#427BAB" d="M770.5,239.7c0,7.7-1,14.5-2.9,20.5c-1.9,6-4.7,11.2-8.2,15.4c-3.5,4.2-7.8,7.5-12.9,9.7
		c-5,2.2-10.7,3.4-16.9,3.4c-6,0-11.5-1.1-16.6-3.4c-5-2.2-9.4-5.5-13-9.7c-3.6-4.2-6.5-9.4-8.5-15.4c-2-6-3-12.9-3-20.5v-6.4
		c0-7.6,1-14.5,3-20.5c2-6.1,4.8-11.3,8.4-15.5c3.6-4.2,7.9-7.5,12.9-9.8c5-2.3,10.6-3.4,16.6-3.4c6.2,0,11.8,1.1,16.9,3.4
		c5.1,2.3,9.4,5.5,12.9,9.8c3.6,4.2,6.3,9.4,8.3,15.5c1.9,6.1,2.9,12.9,2.9,20.5V239.7z M757.2,233.2c0-6.1-0.6-11.4-1.9-16.1
		c-1.2-4.7-3-8.6-5.4-11.8c-2.4-3.2-5.3-5.6-8.7-7.2c-3.4-1.6-7.3-2.4-11.7-2.4c-4.2,0-7.9,0.8-11.3,2.4c-3.4,1.6-6.3,4-8.7,7.2
		c-2.4,3.2-4.3,7.1-5.6,11.8c-1.3,4.7-2,10-2,16.1v6.6c0,6.1,0.7,11.5,2,16.2c1.3,4.7,3.2,8.6,5.6,11.8c2.4,3.2,5.3,5.6,8.7,7.2
		c3.4,1.6,7.2,2.5,11.3,2.5c4.4,0,8.3-0.8,11.7-2.5c3.4-1.6,6.3-4,8.6-7.2c2.4-3.2,4.1-7.1,5.4-11.8c1.2-4.7,1.8-10.1,1.8-16.2
		V233.2z"/>
	<path fill="#427BAB" d="M817.5,276.4h48.3v11H804V185.5h13.5V276.4z"/>
	<path fill="#427BAB" d="M962.4,185.5v69c0,5.7-1,10.8-3,15c-2,4.3-4.7,7.9-8.1,10.7c-3.4,2.8-7.3,5-11.8,6.4
		c-4.5,1.4-9.2,2.1-14.1,2.1c-5.2,0-10-0.7-14.5-2.1c-4.5-1.4-8.4-3.6-11.7-6.4c-3.3-2.8-5.9-6.4-7.8-10.7c-1.9-4.3-2.8-9.3-2.8-15
		v-69h13.3v69c0,4,0.6,7.4,1.7,10.3c1.1,2.9,2.7,5.3,4.8,7.3c2.1,1.9,4.5,3.4,7.4,4.3c2.9,0.9,6.1,1.4,9.6,1.4
		c3.5,0,6.8-0.5,9.7-1.4c2.9-0.9,5.4-2.4,7.4-4.3c2.1-1.9,3.6-4.4,4.8-7.3s1.7-6.4,1.7-10.3v-69H962.4z"/>
	<path fill="#427BAB" d="M1075.2,287.4h-13.5l-51.3-78.5v78.5h-13.5V185.5h13.5l51.4,78.9v-78.9h13.4V287.4z"/>
	<path fill="#427BAB" d="M1180.8,196.6h-32.8v90.8h-13.4v-90.8H1102v-11.1h78.8V196.6z"/>
	<path fill="#427BAB" d="M1266.8,240.3h-44.2v36.1h51.3v11h-64.7V185.5h64v11.1h-50.6v32.8h44.2V240.3z"/>
	<path fill="#427BAB" d="M1361.6,240.3h-44.2v36.1h51.3v11H1304V185.5h64v11.1h-50.6v32.8h44.2V240.3z"/>
	<path fill="#427BAB" d="M1436.2,246.2h-23.9v41.2h-13.5V185.5h33.7c11.5,0,20.3,2.6,26.5,7.8c6.2,5.2,9.3,12.8,9.3,22.8
		c0,6.3-1.7,11.9-5.1,16.6c-3.4,4.7-8.2,8.2-14.3,10.6l23.9,43.2v0.8h-14.4L1436.2,246.2z M1412.3,235.2h20.6c3.6,0,6.8-0.5,9.6-1.5
		c2.7-1,5-2.4,6.8-4.1c1.8-1.7,3.2-3.7,4.1-6c0.9-2.3,1.4-4.8,1.4-7.5c0-2.9-0.4-5.6-1.3-8c-0.9-2.4-2.2-4.5-4-6.2
		c-1.8-1.7-4.1-3.1-6.9-4c-2.8-0.9-6.1-1.4-10-1.4h-20.2V235.2z"/>
	<path fill="#427BAB" d="M1554.7,261.6c0-2.4-0.4-4.5-1.1-6.3c-0.7-1.8-2-3.5-3.8-5c-1.8-1.5-4.3-2.9-7.5-4.3
		c-3.1-1.3-7.1-2.7-11.9-4.1c-5-1.4-9.6-3.1-13.7-4.9c-4.1-1.8-7.6-4-10.4-6.4c-2.9-2.4-5.1-5.1-6.6-8.2c-1.5-3.1-2.3-6.6-2.3-10.6
		c0-4,0.8-7.6,2.5-11c1.7-3.4,4-6.3,7-8.8c3-2.5,6.7-4.4,10.9-5.8c4.2-1.4,9-2.1,14.2-2.1c5.7,0,10.8,0.9,15.3,2.6
		c4.5,1.7,8.2,4,11.3,6.9c3.1,2.8,5.4,6.1,7,9.9c1.6,3.7,2.4,7.6,2.4,11.5h-13.5c0-2.8-0.5-5.5-1.4-7.9c-0.9-2.4-2.3-4.5-4.2-6.3
		c-1.9-1.8-4.2-3.1-7-4.1c-2.8-1-6.1-1.5-9.9-1.5c-3.6,0-6.7,0.4-9.4,1.3s-4.9,2-6.6,3.5c-1.7,1.5-3,3.2-3.8,5.2
		c-0.8,2-1.3,4.2-1.3,6.6c0,2.1,0.5,4.1,1.4,5.9c0.9,1.8,2.3,3.4,4.2,4.9c1.9,1.5,4.4,2.9,7.4,4.1c3,1.3,6.6,2.5,10.8,3.6
		c5.8,1.6,10.8,3.4,15,5.4c4.2,2,7.7,4.2,10.4,6.8s4.8,5.3,6.1,8.5c1.3,3.1,2,6.7,2,10.6c0,4.2-0.8,7.9-2.5,11.3
		c-1.7,3.4-4.1,6.2-7.2,8.6c-3.1,2.4-6.8,4.2-11.2,5.5c-4.4,1.3-9.2,1.9-14.6,1.9c-3.1,0-6.3-0.3-9.4-0.9c-3.1-0.6-6.1-1.5-9-2.6
		c-2.9-1.2-5.5-2.6-8-4.3c-2.4-1.7-4.6-3.7-6.4-6c-1.8-2.3-3.2-4.9-4.3-7.7c-1-2.8-1.5-6-1.5-9.4h13.5c0,3.5,0.7,6.5,2.1,9
		s3.2,4.6,5.5,6.2c2.3,1.6,5,2.8,8,3.6c3,0.8,6.2,1.2,9.5,1.2c7.1,0,12.5-1.4,16.3-4.3C1552.8,270.6,1554.7,266.6,1554.7,261.6z"/>
</g>
<g>
	<circle fill="#FFFFFF" cx="374.8" cy="303.3" r="36"/>
	<circle fill="#FFFFFF" cx="180.1" cy="303.3" r="36"/>
	<path fill="#427CAB" d="M253,317.8C253,317.8,252.9,317.8,253,317.8c-9.6-0.1-17.3-7.8-17.3-17.4l0.8-138.2
		c0.1-9.5,7.8-17.2,17.3-17.2c0,0,0.1,0,0.1,0c9.5,0.1,17.2,7.8,17.2,17.4l-0.8,138.2C270.2,310.2,262.5,317.8,253,317.8z"/>
	<path fill="#427CAB" d="M206.9,352.4C206.9,352.4,206.9,352.4,206.9,352.4c-9.5,0-17.3-7.7-17.3-17.3l0.2-221.3
		c0-9.5,7.7-17.3,17.3-17.3c0,0,0,0,0,0c9.5,0,17.3,7.7,17.3,17.3l-0.2,221.3C224.2,344.6,216.4,352.4,206.9,352.4z"/>
	<path fill="#427CAB" d="M158.7,352.4c-0.1,0-0.2,0-0.3,0c-9.5-0.2-17.1-8-17-17.5l3.9-240.6c0.2-9.5,8-17.1,17.5-17
		c9.5,0.2,17.1,8,17,17.5l-3.9,240.6C175.8,344.8,168.1,352.4,158.7,352.4z"/>
	<path fill="#F48C31" d="M114.8,352.4c-9.5,0-17.2-7.7-17.3-17.2l-1.2-200.7c-0.1-9.5,7.6-17.3,17.2-17.4c0,0,0.1,0,0.1,0
		c9.5,0,17.2,7.7,17.3,17.2l1.2,200.7c0.1,9.5-7.6,17.3-17.2,17.4C114.9,352.4,114.9,352.4,114.8,352.4z"/>
	<path fill="#F48C31" d="M135,375.4c-4.8,0-9.6-2-13-5.9L47.9,285c-6.3-7.2-5.6-18.1,1.6-24.4c7.2-6.3,18.1-5.6,24.4,1.6l74.1,84.5
		c6.3,7.2,5.6,18.1-1.6,24.4C143.1,374,139,375.4,135,375.4z"/>
	<g>
		<circle fill="#FFFFFF" cx="181" cy="303" r="73.2"/>
		<path fill="#F48C31" d="M181,393.4c-49.9,0-90.5-40.6-90.5-90.5s40.6-90.4,90.5-90.4s90.4,40.6,90.4,90.4S230.9,393.4,181,393.4z
			 M181,247c-30.8,0-55.9,25.1-55.9,55.9c0,30.8,25.1,55.9,55.9,55.9c30.8,0,55.9-25.1,55.9-55.9C237,272.1,211.9,247,181,247z"/>
	</g>
	<g>
		<line fill="#8F2C8D" x1="301.8" y1="302.9" x2="301" y2="164.6"/>
		<path fill="#5696CE" d="M301.8,320.1c-9.5,0-17.2-7.7-17.3-17.2l-0.8-138.2c-0.1-9.5,7.6-17.3,17.2-17.4c0,0,0.1,0,0.1,0
			c9.5,0,17.2,7.7,17.3,17.2l0.8,138.2C319.1,312.3,311.4,320.1,301.8,320.1C301.9,320.1,301.8,320.1,301.8,320.1z"/>
	</g>
	<g>
		<line fill="#8F2C8D" x1="347.9" y1="337.4" x2="347.7" y2="116.1"/>
		<path fill="#5696CE" d="M347.9,354.7c-9.5,0-17.3-7.7-17.3-17.3l-0.2-221.3c0-9.5,7.7-17.3,17.3-17.3c0,0,0,0,0,0
			c9.5,0,17.3,7.7,17.3,17.3l0.2,221.3C365.2,346.9,357.4,354.6,347.9,354.7C347.9,354.7,347.9,354.7,347.9,354.7z"/>
	</g>
	<g>
		<line fill="#8F2C8D" x1="396.1" y1="337.4" x2="392.3" y2="96.8"/>
		<path fill="#5696CE" d="M396.1,354.7c-9.4,0-17.1-7.5-17.3-17L375,97c-0.2-9.5,7.5-17.4,17-17.5c0.1,0,0.2,0,0.3,0
			c9.4,0,17.1,7.5,17.3,17l3.9,240.6c0.2,9.5-7.5,17.4-17,17.5C396.3,354.7,396.2,354.7,396.1,354.7z"/>
	</g>
	<path fill="#F48C31" d="M439.9,354.7c0,0-0.1,0-0.1,0c-9.5-0.1-17.2-7.8-17.2-17.4l1.2-200.7c0.1-9.5,7.8-17.2,17.3-17.2
		c0,0,0.1,0,0.1,0c9.5,0.1,17.2,7.8,17.2,17.4l-1.2,200.7C457.1,347,449.4,354.7,439.9,354.7z"/>
	<path fill="#F48C31" d="M419.8,377.7c-4,0-8.1-1.4-11.4-4.3c-7.2-6.3-7.9-17.2-1.6-24.4l74.1-84.5c6.3-7.2,17.2-7.9,24.4-1.6
		c7.2,6.3,7.9,17.2,1.6,24.4l-74.1,84.5C429.4,375.7,424.6,377.7,419.8,377.7z"/>
	<g>
		<circle fill="#FFFFFF" cx="373.8" cy="305.3" r="73.2"/>
		<path fill="#F48C31" d="M373.8,395.7c-49.9,0-90.5-40.6-90.5-90.5s40.6-90.5,90.5-90.5s90.5,40.6,90.5,90.5
			S423.6,395.7,373.8,395.7z M373.8,249.3c-30.8,0-55.9,25.1-55.9,55.9s25.1,55.9,55.9,55.9s55.9-25.1,55.9-55.9
			S404.6,249.3,373.8,249.3z"/>
	</g>
	<circle fill="#231F20" cx="373.8" cy="305.3" r="18.1"/>
	<circle fill="#427CAB" cx="373.8" cy="305.3" r="18.1"/>
	<circle fill="#5696CE" cx="180.1" cy="305.3" r="18.1"/>
</g>
<rect x="-6949.9" y="695.8" fill="#FFEF2A" width="16383" height="1"/>
<rect x="-6966.1" y="695.3" fill="#FFEF2A" width="16383" height="1"/>
</svg>
