<?xml version="1.0" encoding="utf-8"?>
<!-- Generator: Adobe Illustrator 17.0.0, SVG Export Plug-In . SVG Version: 6.00 Build 0)  -->
<!DOCTYPE svg PUBLIC "-//W3C//DTD SVG 1.1//EN" "http://www.w3.org/Graphics/SVG/1.1/DTD/svg11.dtd">
<svg version="1.1" id="Calque_1" xmlns="http://www.w3.org/2000/svg" xmlns:xlink="http://www.w3.org/1999/xlink" x="0px" y="0px"
	 width="50px" height="50px" viewBox="0 0 50 50" enable-background="new 0 0 50 50" xml:space="preserve">
<g>
	<path fill="#FFFFFF" d="M36.544,15.677c-0.907,0.539-1.912,0.929-2.98,1.139c-0.856-0.91-2.076-1.483-3.427-1.483
		c-2.591,0-4.694,2.102-4.694,4.694c0,0.369,0.042,0.726,0.122,1.071c-3.901-0.197-7.357-2.065-9.673-4.906
		c-0.405,0.695-0.635,1.502-0.635,2.362c0,1.628,0.829,3.064,2.088,3.906c-0.769-0.024-1.492-0.235-2.125-0.587
		c-0.001,0.02-0.001,0.038-0.001,0.059c0,2.272,1.617,4.17,3.764,4.601c-0.392,0.108-0.807,0.166-1.236,0.166
		c-0.303,0-0.596-0.03-0.882-0.085c0.597,1.863,2.331,3.221,4.385,3.26c-1.607,1.26-3.63,2.008-5.829,2.008
		c-0.379,0-0.752-0.021-1.119-0.066c2.076,1.332,4.544,2.109,7.193,2.109c8.634,0,13.355-7.152,13.355-13.354
		c0-0.204-0.006-0.405-0.015-0.607c0.917-0.66,1.713-1.488,2.342-2.429c-0.84,0.375-1.745,0.626-2.697,0.74
		C35.449,17.694,36.194,16.773,36.544,15.677z"/>
	<g>
		<g>
			<path fill="#FFFFFF" d="M25.738,3.024c-11.229,0-20.334,9.102-20.334,20.334c0,11.229,9.105,20.334,20.334,20.334
				c11.229,0,20.334-9.105,20.334-20.334C46.072,12.126,36.967,3.024,25.738,3.024z M25.738,42.421
				c-10.528,0-19.063-8.536-19.063-19.063c0-10.529,8.535-19.063,19.063-19.063c10.528,0,19.063,8.534,19.063,19.063
				C44.801,33.885,36.266,42.421,25.738,42.421z"/>
		</g>
	</g>
</g>
</svg>
