<?xml version="1.0" encoding="utf-8"?>
<!-- Generator: Adobe Illustrator 18.1.1, SVG Export Plug-In . SVG Version: 6.00 Build 0)  -->
<svg version="1.1" id="Calque_1" xmlns="http://www.w3.org/2000/svg" xmlns:xlink="http://www.w3.org/1999/xlink" x="0px" y="0px"
	 viewBox="-272 395.9 50 50" enable-background="new -272 395.9 50 50" xml:space="preserve">
<g>
	<path fill="#444" d="M-235.5,411.6c-0.9,0.5-1.9,0.9-3,1.1c-0.9-0.9-2.1-1.5-3.4-1.5c-2.6,0-4.7,2.1-4.7,4.7
		c0,0.4,0,0.7,0.1,1.1c-3.9-0.2-7.4-2.1-9.7-4.9c-0.4,0.7-0.6,1.5-0.6,2.4c0,1.6,0.8,3.1,2.1,3.9c-0.8,0-1.5-0.2-2.1-0.6
		c0,0,0,0,0,0.1c0,2.3,1.6,4.2,3.8,4.6c-0.4,0.1-0.8,0.2-1.2,0.2c-0.3,0-0.6,0-0.9-0.1c0.6,1.9,2.3,3.2,4.4,3.3
		c-1.6,1.3-3.6,2-5.8,2c-0.4,0-0.8,0-1.1-0.1c2.1,1.3,4.5,2.1,7.2,2.1c8.6,0,13.4-7.2,13.4-13.4c0-0.2,0-0.4,0-0.6
		c0.9-0.7,1.7-1.5,2.3-2.4c-0.8,0.4-1.7,0.6-2.7,0.7C-236.6,413.6-235.8,412.7-235.5,411.6z"/>
	<g>
		<g>
			<path fill="#444" d="M-246.3,398.9c-11.2,0-20.3,9.1-20.3,20.3c0,11.2,9.1,20.3,20.3,20.3s20.3-9.1,20.3-20.3
				C-225.9,408-235,398.9-246.3,398.9z M-246.3,438.3c-10.5,0-19.1-8.5-19.1-19.1c0-10.5,8.5-19.1,19.1-19.1
				c10.5,0,19.1,8.5,19.1,19.1C-227.2,429.8-235.7,438.3-246.3,438.3z"/>
		</g>
	</g>
</g>
</svg>
