<?xml version="1.0" encoding="utf-8"?>
<!-- Generator: Adobe Illustrator 17.0.0, SVG Export Plug-In . SVG Version: 6.00 Build 0)  -->
<!DOCTYPE svg PUBLIC "-//W3C//DTD SVG 1.1//EN" "http://www.w3.org/Graphics/SVG/1.1/DTD/svg11.dtd">
<svg version="1.1" id="Calque_1" xmlns="http://www.w3.org/2000/svg" xmlns:xlink="http://www.w3.org/1999/xlink" x="0px" y="0px"
	 width="50px" height="50px" viewBox="0 0 50 50" enable-background="new 0 0 50 50" xml:space="preserve">
<g>
	<path fill="#FFFFFF" d="M33.328,15.605c-1.366-0.083-4.798-0.125-7.78-0.125c-2.981,0-6.412,0.042-7.78,0.125
		c-1.365,0.085-2.039,0.293-2.668,1.408c-0.631,1.114-0.967,3.047-0.967,6.426v0.003v0.004c0,3.38,0.337,5.311,0.967,6.425
		c0.629,1.115,1.303,1.323,2.668,1.408c1.367,0.083,4.798,0.125,7.78,0.125c2.981,0,6.414-0.042,7.78-0.125
		c1.365-0.085,2.039-0.293,2.668-1.408c0.631-1.114,0.967-3.045,0.967-6.425v-0.004v-0.003c0-3.379-0.337-5.312-0.967-6.426
		C35.367,15.898,34.694,15.69,33.328,15.605z M23.276,27.625v-8.368l6.483,4.184L23.276,27.625z"/>
	<g>
		<g>
			<path fill="#FFFFFF" d="M25.549,3.148c-11.207,0-20.294,9.084-20.294,20.294c0,11.207,9.087,20.294,20.294,20.294
				c11.207,0,20.294-9.087,20.294-20.294C45.842,12.232,36.756,3.148,25.549,3.148z M25.549,42.467
				c-10.507,0-19.025-8.519-19.025-19.025c0-10.509,8.518-19.025,19.025-19.025c10.507,0,19.025,8.517,19.025,19.025
				C44.574,33.947,36.056,42.467,25.549,42.467z"/>
		</g>
	</g>
</g>
</svg>
